<?xml version="1.0" encoding="UTF-8"?>
<!DOCTYPE svg PUBLIC "-//W3C//DTD SVG 1.1//EN" "http://www.w3.org/Graphics/SVG/1.1/DTD/svg11.dtd">
<!-- Creator: CorelDRAW 2021 (64-Bit OEM Version) -->
<svg xmlns="http://www.w3.org/2000/svg" xml:space="preserve" width="2.14869in" height="6.3624in" version="1.1" style="shape-rendering:geometricPrecision; text-rendering:geometricPrecision; image-rendering:optimizeQuality; fill-rule:evenodd; clip-rule:evenodd"
viewBox="0 0 95.72 283.43"
 xmlns:xlink="http://www.w3.org/1999/xlink"
 xmlns:xodm="http://www.corel.com/coreldraw/odm/2003">
 <defs>
  <style type="text/css">
   <![CDATA[
    .fil1 {fill:#FCDA55}
    .fil0 {fill:#333333;fill-rule:nonzero}
   ]]>
  </style>
 </defs>
 <g id="Layer_x0020_1">
  <metadata id="CorelCorpID_0Corel-Layer"/>
  <g id="_2328462966560">
   <path class="fil0" d="M49.74 124.54c0.6,7.75 1.93,12.43 3.04,16.3 1.86,6.53 3.07,10.78 -0.87,23.3 -1.8,5.71 -2.72,18.17 -2.71,30.46 0.01,11.97 0.92,23.78 2.77,29.02 1.55,4.37 2.01,17.73 1.4,30.31 -0.54,10.99 -1.91,21.43 -4.12,24.81 -0.05,0.08 -0.12,0.17 -0.2,0.29 -0.57,0.82 -2.06,2.97 -2.01,3.67 0,0.01 0.01,-0.02 0.03,-0.03l0.06 0.75c-0.55,0.04 -0.8,-0.21 -0.84,-0.66 -0.08,-0.97 1.53,-3.29 2.14,-4.16l0.19 -0.27c2.13,-3.27 3.47,-13.56 4,-24.44 0.61,-12.5 0.16,-25.74 -1.36,-30.02 -1.88,-5.32 -2.8,-17.22 -2.81,-29.27 -0.01,-12.36 0.92,-24.9 2.74,-30.68 3.87,-12.31 2.68,-16.48 0.86,-22.87 -1.11,-3.9 -2.46,-8.62 -3.06,-16.45l0.75 -0.06z"/>
   <path class="fil1" d="M45.45 121.74c0.22,3.52 -0.58,6.03 -2.43,7.49 -0.8,2.72 3.28,2.98 6.66,3.27 2.57,0.31 3.43,-0.27 1.73,-2.18 -1.75,-2.48 -1.8,-5.36 -0.45,-8.58 23.79,-9.59 39.42,-29.14 44.67,-61.38 1.08,-25.58 -6.71,-46.35 -32.42,-57.4 -14.08,-5.53 -28.15,-3.23 -42.23,6.22 -17.35,12.5 -23.28,32.36 -20.21,58.03 9.14,30.5 24.48,47.72 44.67,54.53zm-24.12 -106.09c0,0 9.04,-8.75 13.71,-5.98 4.67,2.77 1.46,9.04 -1.31,12.1 -2.77,3.06 -13.85,15.6 -19.54,12.25 -5.69,-3.35 7.14,-18.37 7.14,-18.37zm-14.43 32.66c0,0 1.31,-5.25 5.39,-4.81 4.08,0.44 6.71,1.6 4.96,7.58 -1.75,5.98 0.73,28.58 2.62,32.22 1.9,3.64 2.19,8.16 -0.15,8.6 -2.33,0.44 -16.18,-11.52 -12.83,-43.59z"/>
   <polygon class="fil0" points="44.93,121.74 50.5,122.83 50.49,123.57 47.03,124.15 50.66,124.8 50.67,125.53 44.37,126.94 44.21,126.21 48.7,125.21 44.76,124.5 44.77,123.76 48.32,123.17 44.79,122.48 "/>
  </g>
 </g>
</svg>
