<?xml version="1.0" encoding="UTF-8"?>
<!DOCTYPE svg PUBLIC "-//W3C//DTD SVG 1.1//EN" "http://www.w3.org/Graphics/SVG/1.1/DTD/svg11.dtd">
<!-- Creator: CorelDRAW 2021 (64-Bit OEM Version) -->
<svg xmlns="http://www.w3.org/2000/svg" xml:space="preserve" width="4.46048in" height="3.98881in" version="1.1" style="shape-rendering:geometricPrecision; text-rendering:geometricPrecision; image-rendering:optimizeQuality; fill-rule:evenodd; clip-rule:evenodd"
viewBox="0 0 393.82 352.18"
 xmlns:xlink="http://www.w3.org/1999/xlink"
 xmlns:xodm="http://www.corel.com/coreldraw/odm/2003">
 <defs>
  <style type="text/css">
   <![CDATA[
    .fil3 {fill:none}
    .fil0 {fill:#006E6A}
    .fil1 {fill:#009E9A}
    .fil4 {fill:#D13434}
    .fil2 {fill:#FCDA55}
   ]]>
  </style>
 </defs>
 <g id="Layer_x0020_1">
  <metadata id="CorelCorpID_0Corel-Layer"/>
  <g id="_2327955023664">
   <path class="fil0" d="M3.99 199.43l67.82 27.42c2.04,0.82 3.97,1.8 3.99,3.99l1.51 117.16c0.03,2.19 -1.99,4.89 -3.99,3.99l-69.32 -31.03c-2,-0.9 -3.99,-1.8 -3.99,-3.99l0 -113.55c0,-2.2 1.96,-4.82 3.99,-3.99z"/>
   <path class="fil1" d="M186.07 200.03l-102.12 27.5c-2.12,0.57 -4.01,1.8 -3.99,3.99l1.1 116.48c0.02,2.19 1.88,4.6 3.99,3.99l102.81 -29.65c2.11,-0.61 4.03,-1.8 3.99,-3.99l-1.79 -114.34c-0.03,-2.2 -1.87,-4.56 -3.99,-3.99zm-78.79 54.96c2.71,0 4.91,2.97 4.91,6.63 0,3.66 -2.2,6.63 -4.91,6.63 -2.71,0 -4.91,-2.97 -4.91,-6.63 0,-3.66 2.2,-6.63 4.91,-6.63zm66.09 -13.77c2.71,0 4.91,2.97 4.91,6.63 0,3.66 -2.2,6.63 -4.91,6.63 -2.71,0 -4.91,-2.97 -4.91,-6.63 0,-3.66 2.2,-6.63 4.91,-6.63zm-72.56 45.35c-0.56,-1.06 -0.15,-2.38 0.91,-2.94 1.06,-0.56 2.38,-0.15 2.94,0.91 0.04,0.08 15.07,28.98 40.71,23.16 23.26,-5.28 26.9,-23.2 28.43,-30.77 0.19,-0.95 0.36,-1.77 0.48,-2.26 0.29,-1.17 1.48,-1.88 2.64,-1.59 1.17,0.29 1.88,1.48 1.59,2.64 -0.17,0.65 -0.3,1.3 -0.45,2.06 -1.7,8.39 -5.73,28.26 -31.74,34.16 -28.91,6.56 -45.47,-25.29 -45.52,-25.38z"/>
   <path class="fil1" d="M90.05 179.34l0 19.56c-10.68,14.01 -50.83,11.08 -57.07,0l0 -20.42c0.35,3.45 3.58,6.49 8.63,8.68 5.13,2.22 12.2,3.6 19.98,3.6 7.78,0 14.85,-1.38 19.98,-3.6 4.63,-2 7.73,-4.73 8.48,-7.83zm-9.17 -9.19c-4.92,-2.13 -11.74,-3.45 -19.29,-3.45 -7.55,0 -14.37,1.32 -19.29,3.45 -4.7,2.04 -7.6,4.77 -7.6,7.71 0,2.94 2.91,5.67 7.6,7.71 4.92,2.13 11.74,3.45 19.29,3.45 7.55,0 14.37,-1.32 19.29,-3.45 4.7,-2.04 7.6,-4.77 7.6,-7.71 0,-2.94 -2.91,-5.67 -7.6,-7.71z"/>
   <path class="fil2" d="M389.83 183.72l-67.82 27.42c-2.04,0.82 -3.96,1.8 -3.99,3.99l-1.51 117.16c-0.03,2.2 1.99,4.89 3.99,3.99l69.32 -31.03c2,-0.9 3.99,-1.8 3.99,-3.99l0 -113.55c0,-2.2 -1.96,-4.82 -3.99,-3.99z"/>
   <path class="fil2" d="M207.75 184.31l102.12 27.5c2.12,0.57 4.01,1.8 3.99,3.99l-1.1 116.48c-0.02,2.19 -1.88,4.6 -3.99,3.99l-102.81 -29.65c-2.11,-0.61 -4.03,-1.8 -3.99,-3.99l1.79 -114.34c0.03,-2.2 1.87,-4.56 3.99,-3.99zm85.26 86.55c0.56,-1.06 0.15,-2.38 -0.91,-2.94 -1.06,-0.56 -2.38,-0.15 -2.94,0.91 -0.04,0.08 -15.07,28.98 -40.71,23.16 -23.26,-5.28 -26.9,-23.2 -28.43,-30.77 -0.19,-0.95 -0.36,-1.77 -0.48,-2.26 -0.29,-1.17 -1.48,-1.88 -2.64,-1.59 -1.17,0.29 -1.88,1.48 -1.59,2.64 0.16,0.65 0.3,1.3 0.45,2.06 1.7,8.39 5.74,28.26 31.74,34.16 28.91,6.56 45.47,-25.29 45.52,-25.38zm-72.56 -45.35c-2.71,0 -4.91,2.97 -4.91,6.63 0,3.66 2.2,6.63 4.91,6.63 2.71,0 4.91,-2.97 4.91,-6.63 0,-3.66 -2.2,-6.63 -4.91,-6.63zm66.09 13.77c-2.71,0 -4.91,2.97 -4.91,6.63 0,3.66 2.2,6.63 4.91,6.63 2.71,0 4.91,-2.97 4.91,-6.63 0,-3.66 -2.2,-6.63 -4.91,-6.63z"/>
   <path class="fil2" d="M332.23 150.99c-7.55,0 -14.37,1.32 -19.29,3.45 -4.7,2.04 -7.6,4.77 -7.6,7.71 0,2.94 2.91,5.67 7.6,7.71 4.92,2.13 11.74,3.45 19.29,3.45 7.55,0 14.37,-1.32 19.29,-3.45 4.7,-2.04 7.6,-4.77 7.6,-7.71 0,-2.94 -2.91,-5.67 -7.6,-7.71 -4.92,-2.13 -11.74,-3.45 -19.29,-3.45zm-28.46 12.63l0 19.56c10.68,14.01 50.83,11.08 57.07,0l0 -20.42c-0.35,3.44 -3.58,6.49 -8.63,8.68 -5.13,2.22 -12.2,3.6 -19.98,3.6 -7.78,0 -14.85,-1.38 -19.98,-3.6 -4.63,-2 -7.73,-4.73 -8.48,-7.83z"/>
   <path class="fil2" d="M262.65 150.99c-7.55,0 -14.37,1.32 -19.29,3.45 -4.7,2.04 -7.6,4.77 -7.6,7.71 0,2.94 2.91,5.67 7.6,7.71 4.92,2.13 11.74,3.45 19.29,3.45 7.55,0 14.37,-1.32 19.29,-3.45 4.7,-2.04 7.6,-4.77 7.6,-7.71 0,-2.94 -2.91,-5.67 -7.6,-7.71 -4.92,-2.13 -11.74,-3.45 -19.29,-3.45zm-28.46 12.63l0 19.56c10.68,14.01 50.83,11.08 57.07,0l0 -20.42c-0.35,3.44 -3.58,6.49 -8.63,8.68 -5.13,2.22 -12.2,3.6 -19.98,3.6 -7.78,0 -14.85,-1.38 -19.98,-3.6 -4.63,-2 -7.73,-4.73 -8.48,-7.83z"/>
   <path class="fil1" d="M102.57 178.48c0.08,-0.62 0.24,-1.21 0.45,-1.78 -0.07,0.38 -0.11,0.77 -0.11,1.16 0,3.7 3.31,6.99 8.66,9.3 5.13,2.22 12.2,3.6 19.98,3.6 7.78,0 14.85,-1.38 19.98,-3.6 4.07,-1.76 6.96,-4.09 8.11,-6.72l0 18.46c-10.68,14.01 -50.83,11.08 -57.07,0 0,-6.81 0,-13.62 0,-20.42zm48.27 -8.33c-4.92,-2.13 -11.74,-3.45 -19.29,-3.45 -7.55,0 -14.37,1.32 -19.29,3.45 -4.7,2.04 -7.6,4.77 -7.6,7.71 0,2.94 2.91,5.67 7.6,7.71 4.92,2.13 11.74,3.45 19.29,3.45 7.55,0 14.37,-1.32 19.29,-3.45 4.7,-2.04 7.6,-4.77 7.6,-7.71 0,-2.94 -2.91,-5.67 -7.6,-7.71z"/>
   <ellipse class="fil3" cx="131.18" cy="177.87" rx="27.77" ry="12.03"/>
   <path class="fil4" d="M101.46 32.72l67.82 27.42c2.04,0.82 3.96,1.8 3.99,3.99l1.51 117.16c0.03,2.2 -1.99,4.89 -3.99,3.99l-69.32 -31.03c-2,-0.9 -3.99,-1.8 -3.99,-3.99l0 -113.55c0,-2.2 1.96,-4.82 3.99,-3.99z"/>
   <path class="fil4" d="M283.54 33.32l-102.12 27.5c-2.12,0.57 -4.01,1.8 -3.99,3.99l1.1 116.48c0.02,2.19 1.88,4.6 3.99,3.99l102.81 -29.65c2.11,-0.61 4.03,-1.8 3.99,-3.99l-1.79 -114.34c-0.03,-2.2 -1.88,-4.56 -3.99,-3.99zm-85.26 86.55c-0.56,-1.06 -0.15,-2.38 0.91,-2.94 1.06,-0.56 2.38,-0.15 2.94,0.91 0.04,0.08 15.07,28.98 40.71,23.16 23.26,-5.28 26.89,-23.2 28.43,-30.77 0.19,-0.95 0.36,-1.77 0.48,-2.26 0.29,-1.17 1.48,-1.88 2.64,-1.59 1.17,0.29 1.88,1.48 1.59,2.64 -0.16,0.65 -0.3,1.3 -0.45,2.06 -1.7,8.39 -5.74,28.26 -31.74,34.16 -28.91,6.56 -45.47,-25.29 -45.52,-25.38zm72.56 -45.35c2.71,0 4.91,2.97 4.91,6.63 0,3.66 -2.2,6.63 -4.91,6.63 -2.71,0 -4.91,-2.97 -4.91,-6.63 0,-3.66 2.2,-6.63 4.91,-6.63zm-66.09 13.77c2.71,0 4.91,2.97 4.91,6.63 0,3.66 -2.2,6.63 -4.91,6.63 -2.71,0 -4.91,-2.97 -4.91,-6.63 0,-3.66 2.2,-6.63 4.91,-6.63z"/>
   <path class="fil4" d="M187.52 12.63l0 19.56c-10.68,14.01 -50.83,11.08 -57.07,0l0 -20.41c0.35,3.44 3.58,6.49 8.63,8.68 5.13,2.22 12.2,3.6 19.98,3.6 7.78,0 14.85,-1.38 19.98,-3.6 4.63,-2 7.73,-4.73 8.48,-7.83zm-9.17 -9.19c-4.92,-2.13 -11.74,-3.45 -19.29,-3.45 -7.55,0 -14.37,1.32 -19.29,3.45 -4.7,2.04 -7.6,4.77 -7.6,7.71 0,2.94 2.91,5.67 7.6,7.71 4.92,2.13 11.74,3.45 19.29,3.45 7.55,0 14.37,-1.32 19.29,-3.45 4.7,-2.04 7.6,-4.77 7.6,-7.71 0,-2.94 -2.91,-5.67 -7.6,-7.71z"/>
   <path class="fil4" d="M257.11 12.63l0 19.56c-10.68,14.01 -50.83,11.08 -57.07,0l0 -20.42c0.35,3.45 3.58,6.49 8.63,8.68 5.13,2.22 12.2,3.6 19.98,3.6 7.78,0 14.85,-1.38 19.98,-3.6 4.63,-2 7.73,-4.73 8.48,-7.83zm-9.17 -9.19c-4.92,-2.13 -11.74,-3.45 -19.29,-3.45 -7.55,0 -14.37,1.32 -19.29,3.45 -4.7,2.04 -7.6,4.77 -7.6,7.71 0,2.94 2.91,5.67 7.6,7.71 4.92,2.13 11.74,3.45 19.29,3.45 7.55,0 14.37,-1.32 19.29,-3.45 4.7,-2.04 7.6,-4.77 7.6,-7.71 0,-2.94 -2.91,-5.67 -7.6,-7.71z"/>
  </g>
 </g>
</svg>
