<?xml version="1.0" encoding="UTF-8"?>
<!DOCTYPE svg PUBLIC "-//W3C//DTD SVG 1.1//EN" "http://www.w3.org/Graphics/SVG/1.1/DTD/svg11.dtd">
<!-- Creator: CorelDRAW 2021 (64-Bit OEM Version) -->
<svg xmlns="http://www.w3.org/2000/svg" xml:space="preserve" width="4.34362in" height="4.33174in" version="1.1" style="shape-rendering:geometricPrecision; text-rendering:geometricPrecision; image-rendering:optimizeQuality; fill-rule:evenodd; clip-rule:evenodd"
viewBox="0 0 380.54 379.5"
 xmlns:xlink="http://www.w3.org/1999/xlink"
 xmlns:xodm="http://www.corel.com/coreldraw/odm/2003">
 <defs>
  <style type="text/css">
   <![CDATA[
    .fil1 {fill:black}
    .fil0 {fill:#006E6A}
   ]]>
  </style>
 </defs>
 <g id="Layer_x0020_1">
  <metadata id="CorelCorpID_0Corel-Layer"/>
  <g id="_2328023861568">
   <path class="fil0" d="M191.38 4.76l151.47 117.87 -12.06 234.32c-0.64,12.38 -10.15,22.55 -22.55,22.55l-48.19 0c0.73,-4.05 1.12,-8.22 1.12,-12.47l0 -130.71c0,-38.67 -31.63,-70.3 -70.3,-70.3 -38.67,0 -70.3,31.63 -70.3,70.3l0 130.71c0,4.25 0.38,8.42 1.12,12.47l-53.94 0c-12.4,0 -22.21,-10.15 -22.55,-22.55l-6.3 -230.89 152.48 -121.3z"/>
   <path class="fil1" d="M86.46 16.08l22.8 0c2.92,0 5.3,2.39 5.3,5.3l0 38.75 74.82 -59.18c1.64,-1.3 3.92,-1.24 5.5,0.01l0.01 -0.01 183.98 145.81c1.92,1.52 2.24,4.31 0.71,6.23 -1.52,1.92 -4.31,2.24 -6.23,0.71l-181.24 -143.63 -184.94 146.28c-1.92,1.51 -4.7,1.19 -6.21,-0.73 -1.51,-1.92 -1.19,-4.7 0.73,-6.21l79.48 -62.86 0 -65.17c0,-2.92 2.39,-5.3 5.3,-5.3z"/>
  </g>
 </g>
</svg>
