<?xml version="1.0" encoding="UTF-8"?>
<!DOCTYPE svg PUBLIC "-//W3C//DTD SVG 1.1//EN" "http://www.w3.org/Graphics/SVG/1.1/DTD/svg11.dtd">
<!-- Creator: CorelDRAW 2021 (64-Bit OEM Version) -->
<svg xmlns="http://www.w3.org/2000/svg" xml:space="preserve" width="3.65886in" height="5.33368in" version="1.1" style="shape-rendering:geometricPrecision; text-rendering:geometricPrecision; image-rendering:optimizeQuality; fill-rule:evenodd; clip-rule:evenodd"
viewBox="0 0 280.23 408.5"
 xmlns:xlink="http://www.w3.org/1999/xlink"
 xmlns:xodm="http://www.corel.com/coreldraw/odm/2003">
 <defs>
  <style type="text/css">
   <![CDATA[
    .str0 {stroke:white;stroke-width:17.59;stroke-linecap:round;stroke-linejoin:round;stroke-miterlimit:2.61313}
    .fil2 {fill:none}
    .fil1 {fill:#009E9A}
    .fil0 {fill:#FCDA55}
    .fil4 {fill:red}
    .fil3 {fill:white}
   ]]>
  </style>
 </defs>
 <g id="Layer_x0020_1">
  <metadata id="CorelCorpID_0Corel-Layer"/>
  <g id="_2327923020896">
   <path class="fil0" d="M119.06 198.87l-71.31 39.94c-11.66,6.64 -23.07,12.25 -33.52,26.71 -22.73,31.42 -15.02,68.94 0.88,89.06 18.1,22.91 46.44,34.45 75.85,27.76 3.45,-0.79 7.77,-2.52 10.73,-2.91 5.16,5.58 8.76,10.19 15.88,15.14 21.64,15.05 47.77,17.83 70.44,8.78 30.53,-12.19 50.05,-41.82 47.36,-75.86 -1.38,-17.55 -8.26,-28.36 -14.94,-40.11l-40.55 -72.27c-9.68,3.68 -1.96,37.96 -12.54,38.34 -20.93,0.36 -39.51,-5.05 -56.38,-15.72 -8.9,-5.88 14.48,-30.58 8.1,-38.85z"/>
   <path class="fil1" d="M227.59 45.53c18.59,59.46 26.27,52.73 -39.18,34.32 -65.45,-18.41 -62.4,-8.66 -15.54,-49.71 46.86,-41.05 36.13,-44.07 54.71,15.39z"/>
   <rect class="fil0" transform="matrix(3.26572 0.918676 -0.918676 3.26572 136.525 71.8274)" width="30.73" height="30.94" rx="3.32" ry="3.32"/>
   <path class="fil1" d="M117.04 183.11l78.66 22.13c5.97,1.68 9.48,7.93 7.8,13.9l-8.39 29.84c-1.68,5.97 -7.93,9.48 -13.9,7.8l-78.66 -22.13c-5.97,-1.68 -9.48,-7.93 -7.8,-13.9l8.39 -29.84c1.68,-5.97 7.93,-9.48 13.9,-7.8z"/>
   <polygon class="fil0" points="103,151.51 3.36,206.74 81.29,228.66 "/>
   <polygon class="fil0" points="224,185.55 280.23,284.63 202.29,262.7 "/>
   <g>
    <path class="fil2 str0" d="M78.84 273.97l29.36 -12.3c0,0 -17.54,44.82 -13.96,43.77 3.58,-1.05 26.98,-22.84 26.98,-22.84 0,0 -10.91,44.63 -8.77,63.33 0,0 11.35,-3.8 32,-59.67 0,0 15.56,16.3 16.8,26.52 0,0 12.4,-26.53 7.25,-34.56l8.6 1.6c0,0 -0.37,-23.54 -11.2,-40.57 -24.02,-37.76 -75.2,10.54 -87.07,34.72z"/>
    <path id="_1" class="fil3" d="M78.84 273.97l29.36 -12.3c0,0 -17.54,44.82 -13.96,43.77 3.58,-1.05 26.98,-22.84 26.98,-22.84 0,0 -10.91,44.63 -8.77,63.33 0,0 11.35,-3.8 32,-59.67 0,0 15.56,16.3 16.8,26.52 0,0 12.4,-26.53 7.25,-34.56l8.6 1.6c0,0 -0.37,-23.54 -11.2,-40.57 -24.02,-37.76 -75.2,10.54 -87.07,34.72z"/>
   </g>
   <path class="fil4" d="M78.84 273.97l29.36 -12.3c0,0 -17.54,44.82 -13.96,43.77 3.58,-1.05 26.98,-22.84 26.98,-22.84 0,0 -10.91,44.63 -8.77,63.33 0,0 11.35,-3.8 32,-59.67 0,0 15.56,16.3 16.8,26.52 0,0 12.4,-26.53 7.25,-34.56l8.6 1.6c0,0 -0.37,-23.54 -11.2,-40.57 -24.02,-37.76 -75.2,10.54 -87.07,34.72z"/>
  </g>
 </g>
</svg>
