<?xml version="1.0" encoding="UTF-8"?>
<!DOCTYPE svg PUBLIC "-//W3C//DTD SVG 1.1//EN" "http://www.w3.org/Graphics/SVG/1.1/DTD/svg11.dtd">
<!-- Creator: CorelDRAW 2021 (64-Bit OEM Version) -->
<svg xmlns="http://www.w3.org/2000/svg" xml:space="preserve" width="4.51628in" height="5.45577in" version="1.1" style="shape-rendering:geometricPrecision; text-rendering:geometricPrecision; image-rendering:optimizeQuality; fill-rule:evenodd; clip-rule:evenodd"
viewBox="0 0 436.48 527.28"
 xmlns:xlink="http://www.w3.org/1999/xlink"
 xmlns:xodm="http://www.corel.com/coreldraw/odm/2003">
 <defs>
  <style type="text/css">
   <![CDATA[
    .fil2 {fill:black}
    .fil3 {fill:#8EDCC4}
    .fil4 {fill:#E24D51}
    .fil1 {fill:#F2D250}
    .fil0 {fill:black;fill-rule:nonzero}
   ]]>
  </style>
 </defs>
 <g id="Layer_x0020_1">
  <metadata id="CorelCorpID_0Corel-Layer"/>
  <g id="_2328023862336">
   <g>
    <path class="fil0" d="M339.16 208.32c-0.57,-1.3 0.02,-2.81 1.32,-3.38 1.3,-0.57 2.81,0.02 3.38,1.32l19.22 43.45c0.39,0.88 0.41,5 -2.44,8.77 -1.5,1.98 -3.77,4.01 -7.17,5.61 -1.28,0.6 -2.81,0.06 -3.41,-1.22 -0.6,-1.28 -0.06,-2.81 1.22,-3.41 2.54,-1.2 4.2,-2.66 5.26,-4.07 1.55,-2.05 1.92,-3.42 1.84,-3.61l-19.22 -43.45z"/>
    <path class="fil0" d="M355.04 200.82c-0.54,-1.31 0.08,-2.81 1.39,-3.35 1.31,-0.54 2.81,0.08 3.35,1.39l18.55 44.3c0.03,0.07 0.92,0.3 2.79,0.47l0 -0.01c1.48,0.13 3.35,-0.05 5.55,-0.86 1.33,-0.49 2.81,0.2 3.29,1.53 0.49,1.33 -0.2,2.81 -1.53,3.29 -3.01,1.11 -5.63,1.35 -7.76,1.16l0 -0.01c-4.03,-0.36 -6.68,-2.62 -7.09,-3.6l-18.55 -44.3z"/>
    <path class="fil1" d="M366.4 147.27c49.13,10.7 51.55,2.29 16.24,36.44 5.14,50.67 13.78,50.4 -29.16,26.92 -45.95,20.62 -43.03,28.86 -34.27,-19.8 -33.54,-37.93 -40.38,-32.56 7.99,-39.15 25.22,-44.06 18.07,-48.99 39.2,-4.4z"/>
    <ellipse class="fil2" cx="328.63" cy="167.93" rx="2.6" ry="3.06"/>
    <ellipse class="fil2" cx="364.19" cy="168.35" rx="2.6" ry="3.06"/>
    <path class="fil0" d="M332.63 179.29c-0.32,-0.89 0.14,-1.86 1.03,-2.18 0.89,-0.32 1.86,0.14 2.18,1.03 0.01,0.03 3.35,9.61 11.95,9.18 8.5,-0.42 10.12,-9.99 10.13,-10.02 0.17,-0.93 1.06,-1.54 1.99,-1.37 0.93,0.17 1.54,1.06 1.37,1.99 -0.01,0.04 -2.07,12.25 -13.33,12.82 -11.15,0.56 -15.31,-11.4 -15.33,-11.44z"/>
   </g>
   <g>
    <path class="fil0" d="M93.96 427.65c0.35,-2.14 2.36,-3.59 4.5,-3.24 2.14,0.35 3.59,2.36 3.24,4.5l-14.04 86.14c-0.27,1.63 -4.19,7.61 -12.06,10.43 -4.19,1.5 -9.59,2.33 -16.26,1.41 -2.15,-0.29 -3.65,-2.26 -3.37,-4.41 0.29,-2.15 2.26,-3.65 4.41,-3.37 5.28,0.72 9.43,0.12 12.58,-1.01 4.75,-1.71 6.88,-3.83 6.96,-4.32l14.04 -86.14z"/>
    <path class="fil0" d="M103.84 435.59c-0.83,-2 0.12,-4.3 2.12,-5.13 2,-0.83 4.3,0.12 5.13,2.12l34.08 81.38c0.11,0.27 2.02,1.01 5.79,1.34l0 -0.02c2.82,0.25 6.37,-0.09 10.53,-1.62 2.04,-0.75 4.29,0.3 5.04,2.34 0.75,2.04 -0.3,4.29 -2.34,5.04 -5.4,1.99 -10.11,2.42 -13.91,2.08l0 -0.02c-7.07,-0.63 -11.67,-4.47 -12.37,-6.14l-34.08 -81.38z"/>
    <path class="fil3" d="M135.79 332.68c90.26,19.66 94.7,4.2 29.84,66.94 9.45,93.09 25.32,92.6 -53.58,49.45 -84.42,37.88 -79.05,53.03 -62.95,-36.37 -61.62,-69.68 -74.18,-59.82 14.67,-71.93 46.33,-80.94 33.2,-90 72.02,-8.08z"/>
    <ellipse class="fil2" cx="66.39" cy="370.64" rx="4.77" ry="5.63"/>
    <ellipse class="fil2" cx="131.73" cy="371.41" rx="4.77" ry="5.63"/>
    <path class="fil0" d="M73.75 391.52c-0.58,-1.63 0.27,-3.43 1.89,-4.01 1.63,-0.58 3.43,0.27 4.01,1.89 0.02,0.05 6.16,17.65 21.96,16.86 15.61,-0.78 18.6,-18.36 18.6,-18.41 0.31,-1.7 1.95,-2.83 3.65,-2.52 1.7,0.31 2.83,1.95 2.52,3.65 -0.01,0.06 -3.81,22.51 -24.48,23.55 -20.48,1.02 -28.13,-20.95 -28.16,-21.01z"/>
   </g>
   <g>
    <path class="fil1" d="M170.48 90.89c-54.86,31.35 -34.55,116.17 48.53,112.23 -30.77,49.47 -111.99,36.27 -125.57,-18.81 -13.6,-56.37 25.92,-96.46 77.04,-93.42z"/>
    <ellipse class="fil2" transform="matrix(1.20437 -0.127916 0.127916 1.20437 100.09 166.456)" rx="2.04" ry="2.4"/>
    <ellipse class="fil2" transform="matrix(1.20437 -0.127916 0.127916 1.20437 133.69 163.286)" rx="2.04" ry="2.4"/>
    <path class="fil0" d="M105.01 176.77c-0.39,-0.8 -0.05,-1.77 0.75,-2.16 0.8,-0.39 1.77,-0.05 2.16,0.75 0.01,0.02 4.12,8.73 12.2,7.46 7.98,-1.25 8.55,-10.44 8.55,-10.47 0.07,-0.89 0.85,-1.56 1.74,-1.49 0.89,0.07 1.56,0.85 1.49,1.74 -0,0.03 -0.73,11.77 -11.29,13.43 -10.46,1.64 -15.59,-9.23 -15.61,-9.26z"/>
   </g>
   <path class="fil4" d="M364.38 330.12c87.4,4.08 89.1,-11.05 38.45,57.79 23.55,85.44 38.29,82.47 -42.22,54.66 -72.84,48.72 -65.43,62.02 -64.54,-24.01 -68.57,-55.33 -78.73,-44.13 2.33,-69.5 30.47,-82.92 16.77,-89.3 65.98,-18.94z"/>
   <g>
    <ellipse class="fil2" transform="matrix(2.18982 -0.370853 0.370853 2.18982 305.581 376.55)" rx="2.04" ry="2.4"/>
    <ellipse class="fil2" transform="matrix(2.18982 -0.370853 0.370853 2.18982 366.718 366.933)" rx="2.04" ry="2.4"/>
    <path class="fil0" d="M315.75 394.88c-0.8,-1.43 -0.29,-3.24 1.13,-4.04 1.43,-0.8 3.24,-0.29 4.04,1.14 0.02,0.04 8.54,15.51 23.17,12.27 14.45,-3.2 14.46,-20.08 14.46,-20.13 0.02,-1.64 1.37,-2.95 3.01,-2.93 1.64,0.02 2.95,1.37 2.93,3.01 -0,0.06 0,21.63 -19.14,25.86 -18.96,4.19 -29.59,-15.12 -29.62,-15.17z"/>
   </g>
   <g>
    <path class="fil3" d="M262.48 29.67c40.75,16.98 44.16,10.09 8.29,34.03 -3.54,44.57 3.97,45.7 -29.43,18.65 -42.93,10.57 -41.71,18.15 -26.48,-22.5 -23,-38.04 -29.74,-34.48 13.06,-32.56 28.72,-34.08 23.32,-39.46 34.55,2.37z"/>
    <ellipse class="fil2" transform="matrix(1.10236 0.201028 -0.201028 1.10236 226.599 41.5643)" rx="2.04" ry="2.4"/>
    <ellipse class="fil2" transform="matrix(1.10236 0.201028 -0.201028 1.10236 257.249 47.5263)" rx="2.04" ry="2.4"/>
    <path class="fil0" d="M228.27 52.01c-0.13,-0.82 0.42,-1.59 1.23,-1.72 0.82,-0.13 1.59,0.42 1.72,1.23 0,0.03 1.38,8.82 8.88,9.81 7.41,0.97 10.32,-7.03 10.32,-7.06 0.29,-0.77 1.16,-1.16 1.93,-0.87 0.77,0.29 1.17,1.16 0.87,1.93 -0.01,0.03 -3.72,10.26 -13.53,8.97 -9.71,-1.28 -11.43,-12.26 -11.44,-12.29z"/>
   </g>
  </g>
 </g>
</svg>
