<?xml version="1.0" encoding="UTF-8"?>
<!DOCTYPE svg PUBLIC "-//W3C//DTD SVG 1.1//EN" "http://www.w3.org/Graphics/SVG/1.1/DTD/svg11.dtd">
<!-- Creator: CorelDRAW 2021 (64-Bit OEM Version) -->
<svg xmlns="http://www.w3.org/2000/svg" xml:space="preserve" width="3.66012in" height="3.66012in" version="1.1" style="shape-rendering:geometricPrecision; text-rendering:geometricPrecision; image-rendering:optimizeQuality; fill-rule:evenodd; clip-rule:evenodd"
viewBox="0 0 290.12 290.12"
 xmlns:xlink="http://www.w3.org/1999/xlink"
 xmlns:xodm="http://www.corel.com/coreldraw/odm/2003">
 <defs>
  <style type="text/css">
   <![CDATA[
    .fil2 {fill:black}
    .fil0 {fill:#F2D250}
    .fil3 {fill:black;fill-rule:nonzero}
    .fil1 {fill:#F2D250;fill-rule:nonzero}
   ]]>
  </style>
 </defs>
 <g id="Layer_x0020_1">
  <metadata id="CorelCorpID_0Corel-Layer"/>
  <g id="_2292245227792">
   <circle class="fil0" cx="145.06" cy="145.06" r="75.36"/>
   <g>
    <path class="fil1" d="M139.32 241.95c0,-3.17 2.57,-5.74 5.74,-5.74 3.17,0 5.74,2.57 5.74,5.74l0 42.43c0,3.17 -2.57,5.74 -5.74,5.74 -3.17,0 -5.74,-2.57 -5.74,-5.74l0 -42.43z"/>
    <path class="fil1" d="M139.32 5.74c0,-3.17 2.57,-5.74 5.74,-5.74 3.17,0 5.74,2.57 5.74,5.74l0 42.43c0,3.17 -2.57,5.74 -5.74,5.74 -3.17,0 -5.74,-2.57 -5.74,-5.74l0 -42.43z"/>
   </g>
   <g>
    <path class="fil1" d="M241.95 150.8c-3.17,0 -5.74,-2.57 -5.74,-5.74 0,-3.17 2.57,-5.74 5.74,-5.74l42.43 0c3.17,0 5.74,2.57 5.74,5.74 0,3.17 -2.57,5.74 -5.74,5.74l-42.43 0z"/>
    <path class="fil1" d="M5.74 150.8c-3.17,0 -5.74,-2.57 -5.74,-5.74 0,-3.17 2.57,-5.74 5.74,-5.74l42.43 0c3.17,0 5.74,2.57 5.74,5.74 0,3.17 -2.57,5.74 -5.74,5.74l-42.43 0z"/>
   </g>
   <g>
    <path class="fil1" d="M209.51 217.63c-2.24,-2.24 -2.24,-5.88 0,-8.12 2.24,-2.24 5.88,-2.24 8.12,0l30 30c2.24,2.24 2.24,5.88 0,8.12 -2.24,2.24 -5.88,2.24 -8.12,0l-30 -30z"/>
    <path class="fil1" d="M42.49 50.6c-2.24,-2.24 -2.24,-5.88 0,-8.12 2.24,-2.24 5.88,-2.24 8.12,0l30 30c2.24,2.24 2.24,5.88 0,8.12 -2.24,2.24 -5.88,2.24 -8.12,0l-30 -30z"/>
   </g>
   <g>
    <path class="fil1" d="M72.49 209.51c2.24,-2.24 5.88,-2.24 8.12,0 2.24,2.24 2.24,5.88 0,8.12l-30 30c-2.24,2.24 -5.88,2.24 -8.12,0 -2.24,-2.24 -2.24,-5.88 0,-8.12l30 -30z"/>
    <path class="fil1" d="M239.52 42.49c2.24,-2.24 5.88,-2.24 8.12,0 2.24,2.24 2.24,5.88 0,8.12l-30 30c-2.24,2.24 -5.88,2.24 -8.12,0 -2.24,-2.24 -2.24,-5.88 0,-8.12l30 -30z"/>
   </g>
   <g>
    <ellipse class="fil2" transform="matrix(3.52439 -0.596867 0.596867 3.52439 103.294 142.346)" rx="1.67" ry="1.97"/>
    <ellipse class="fil2" transform="matrix(3.52439 -0.596867 0.596867 3.52439 183.995 129.652)" rx="1.67" ry="1.97"/>
    <path class="fil3" d="M116.72 166.54c-1.06,-1.89 -0.39,-4.28 1.5,-5.34 1.89,-1.06 4.28,-0.39 5.34,1.5 0.03,0.06 11.27,20.47 30.59,16.2 19.08,-4.22 19.09,-26.51 19.09,-26.57 0.03,-2.17 1.81,-3.9 3.98,-3.87 2.17,0.03 3.9,1.81 3.87,3.98 -0,0.08 0,28.55 -25.26,34.13 -25.03,5.54 -39.05,-19.95 -39.09,-20.02z"/>
   </g>
  </g>
 </g>
</svg>
