<?xml version="1.0" encoding="UTF-8"?>
<!DOCTYPE svg PUBLIC "-//W3C//DTD SVG 1.1//EN" "http://www.w3.org/Graphics/SVG/1.1/DTD/svg11.dtd">
<!-- Creator: CorelDRAW 2021 (64-Bit OEM Version) -->
<svg xmlns="http://www.w3.org/2000/svg" xml:space="preserve" width="9.65626in" height="6.29268in" version="1.1" style="shape-rendering:geometricPrecision; text-rendering:geometricPrecision; image-rendering:optimizeQuality; fill-rule:evenodd; clip-rule:evenodd"
viewBox="0 0 1805.86 1176.82"
 xmlns:xlink="http://www.w3.org/1999/xlink"
 xmlns:xodm="http://www.corel.com/coreldraw/odm/2003">
 <defs>
  <style type="text/css">
   <![CDATA[
    .str0 {stroke:#007470;stroke-width:28.96;stroke-linecap:round;stroke-linejoin:round;stroke-miterlimit:2.61313}
    .fil0 {fill:none}
    .fil4 {fill:#009E9A}
    .fil3 {fill:#1B9D56}
    .fil6 {fill:#BD353B}
    .fil5 {fill:#FCDA55}
    .fil1 {fill:white}
    .fil2 {fill:black;fill-rule:nonzero}
    .fil7 {fill:url(#id0)}
   ]]>
  </style>
  <radialGradient id="id0" gradientUnits="userSpaceOnUse" gradientTransform="matrix(1.09705 -0.871071 0.871091 1.09705 -966 403)" cx="579.56" cy="1044.73" r="31.84" fx="579.56" fy="1044.73">
   <stop offset="0" style="stop-opacity:1; stop-color:#009E9A"/>
   <stop offset="1" style="stop-opacity:1; stop-color:#006E6A"/>
  </radialGradient>
 </defs>
 <g id="Layer_x0020_1">
  <metadata id="CorelCorpID_0Corel-Layer"/>
  <g id="_2328095260096">
   <g>
    <path class="fil0 str0" d="M287.04 460.32c3.32,6.25 5.2,13.38 5.2,20.95 0,24.7 -20.03,44.73 -44.73,44.73 -24.7,0 -44.73,-20.03 -44.73,-44.73 0,-14.93 7.32,-28.16 18.57,-36.28 -21.67,-6.31 -37.51,-26.32 -37.51,-50.03 0,-26.26 19.44,-47.98 44.71,-51.58 -9.51,-11.41 -15.24,-26.08 -15.24,-42.1 0,-36.33 29.45,-65.78 65.78,-65.78 5.07,0 10.01,0.58 14.75,1.66 -0.36,-2.78 -0.54,-5.62 -0.54,-8.5 0,-36.33 29.45,-65.78 65.78,-65.78 9.16,0 17.88,1.87 25.8,5.26 -0.01,-0.52 -0.02,-1.05 -0.02,-1.57 0,-36.33 29.45,-65.78 65.78,-65.78 20.77,0 39.28,9.62 51.34,24.66 -0.19,-2.58 -0.29,-5.18 -0.29,-7.81 0,-56.97 46.18,-103.15 103.15,-103.15 39.9,0 74.5,22.66 91.66,55.81 0.67,-0.01 1.34,-0.03 2.02,-0.03 56.96,0 103.14,46.18 103.14,103.15 0,56.96 -46.18,103.14 -103.14,103.14 -17.54,0 -34.05,-4.38 -48.51,-12.1 -11.45,44.48 -51.84,77.35 -99.89,77.35 -28.84,0 -54.9,-11.84 -73.62,-30.91 0.05,1 0.07,2.01 0.07,3.02 0,39.23 -35.37,71.04 -79,71.04 -15.24,0 -29.47,-3.88 -41.54,-10.61 4.46,8.39 6.99,17.96 6.99,28.12 0,33.13 -26.86,59.99 -59.99,59.99 -5.53,0 -10.89,-0.75 -15.97,-2.15z"/>
    <path id="_1" class="fil1" d="M287.04 460.32c3.32,6.25 5.2,13.38 5.2,20.95 0,24.7 -20.03,44.73 -44.73,44.73 -24.7,0 -44.73,-20.03 -44.73,-44.73 0,-14.93 7.32,-28.16 18.57,-36.28 -21.67,-6.31 -37.51,-26.32 -37.51,-50.03 0,-26.26 19.44,-47.98 44.71,-51.58 -9.51,-11.41 -15.24,-26.08 -15.24,-42.1 0,-36.33 29.45,-65.78 65.78,-65.78 5.07,0 10.01,0.58 14.75,1.66 -0.36,-2.78 -0.54,-5.62 -0.54,-8.5 0,-36.33 29.45,-65.78 65.78,-65.78 9.16,0 17.88,1.87 25.8,5.26 -0.01,-0.52 -0.02,-1.05 -0.02,-1.57 0,-36.33 29.45,-65.78 65.78,-65.78 20.77,0 39.28,9.62 51.34,24.66 -0.19,-2.58 -0.29,-5.18 -0.29,-7.81 0,-56.97 46.18,-103.15 103.15,-103.15 39.9,0 74.5,22.66 91.66,55.81 0.67,-0.01 1.34,-0.03 2.02,-0.03 56.96,0 103.14,46.18 103.14,103.15 0,56.96 -46.18,103.14 -103.14,103.14 -17.54,0 -34.05,-4.38 -48.51,-12.1 -11.45,44.48 -51.84,77.35 -99.89,77.35 -28.84,0 -54.9,-11.84 -73.62,-30.91 0.05,1 0.07,2.01 0.07,3.02 0,39.23 -35.37,71.04 -79,71.04 -15.24,0 -29.47,-3.88 -41.54,-10.61 4.46,8.39 6.99,17.96 6.99,28.12 0,33.13 -26.86,59.99 -59.99,59.99 -5.53,0 -10.89,-0.75 -15.97,-2.15z"/>
   </g>
   <path class="fil2" d="M712.97 943.86l110.35 0 0 69.85 -116.14 0 0 -69.85 5.79 0zm55.58 13.23c2.28,7.82 3.32,15.41 3.24,22.81 -0.07,7.09 -1.18,13.95 -3.21,20.58l43.15 0 0 -43.4 -43.19 0zm-12.36 43.4c2.58,-6.68 4,-13.59 4.07,-20.74 0.07,-7.2 -1.21,-14.74 -4.01,-22.66l-37.48 0 0 43.4 37.42 0z"/>
   <path class="fil2" d="M1249.59 943.86l110.35 0 0 69.85 -116.14 0 0 -69.85 5.79 0zm55.58 13.23c2.28,7.82 3.32,15.41 3.24,22.81 -0.07,7.09 -1.18,13.95 -3.21,20.58l43.15 0 0 -43.4 -43.19 0zm-12.36 43.4c2.58,-6.68 3.99,-13.59 4.07,-20.74 0.07,-7.2 -1.21,-14.74 -4.01,-22.66l-37.48 0 0 43.4 37.42 0z"/>
   <path class="fil3" d="M1352.79 757.77l441.29 0c6.48,0 11.78,5.3 11.78,11.78l0 299.02c0,6.48 -5.3,11.78 -11.78,11.78l-68.97 0c0.7,-2.58 1.07,-5.29 1.07,-8.08 0,-17.02 -13.8,-30.82 -30.82,-30.82 -17.02,0 -30.82,13.8 -30.82,30.82 0,2.8 0.38,5.51 1.07,8.08l-188.25 0c0.7,-2.58 1.07,-5.29 1.07,-8.08 0,-17.02 -13.8,-30.82 -30.82,-30.82 -17.02,0 -30.82,13.8 -30.82,30.82 0,2.8 0.38,5.51 1.07,8.08l-65.1 0c-6.48,0 -11.78,-5.3 -11.78,-11.78l0 -299.02c0,-6.48 5.3,-11.78 11.78,-11.78z"/>
   <g id="_2328095274448">
    <path class="fil2" d="M1488.55 893.08c-0.83,-3.9 1.67,-7.74 5.57,-8.57 3.9,-0.83 7.74,1.67 8.57,5.57 2.79,13.05 12.01,23 24.31,29.62 11.31,6.08 25.13,9.38 39.1,9.76 14.01,0.38 28.09,-2.15 39.88,-7.71 13.08,-6.18 23.28,-16.14 27.08,-30.01 1.05,-3.84 5.01,-6.11 8.85,-5.06 3.84,1.05 6.11,5.01 5.06,8.85 -5.04,18.4 -18.14,31.4 -34.83,39.28 -13.84,6.53 -30.21,9.51 -46.38,9.07 -16.21,-0.44 -32.32,-4.31 -45.6,-11.45 -15.87,-8.54 -27.84,-21.71 -31.61,-39.35z"/>
    <g>
     <path class="fil2" d="M1467.27 836.2c-0.15,3.98 -3.51,7.08 -7.49,6.93 -3.98,-0.15 -7.08,-3.51 -6.93,-7.49 0.55,-13.59 9.03,-22.72 19.93,-27.13 4.59,-1.86 9.65,-2.84 14.71,-2.93 5.07,-0.09 10.15,0.73 14.77,2.48 10.64,4.03 18.92,12.72 19.81,26.35 0.25,3.98 -2.78,7.42 -6.76,7.66 -3.98,0.25 -7.41,-2.78 -7.66,-6.76 -0.46,-7.07 -4.84,-11.61 -10.48,-13.74 -2.93,-1.11 -6.19,-1.63 -9.45,-1.57 -3.27,0.06 -6.57,0.7 -9.56,1.91 -5.97,2.41 -10.6,7.24 -10.88,14.29z"/>
     <path class="fil2" d="M1627.97 836.2c-0.15,3.98 -3.51,7.08 -7.49,6.93 -3.98,-0.15 -7.08,-3.51 -6.93,-7.49 0.55,-13.59 9.03,-22.72 19.93,-27.13 4.59,-1.86 9.65,-2.84 14.71,-2.93 5.07,-0.09 10.15,0.73 14.77,2.48 10.64,4.03 18.92,12.72 19.81,26.35 0.25,3.98 -2.78,7.42 -6.76,7.66 -3.98,0.25 -7.42,-2.78 -7.66,-6.76 -0.46,-7.07 -4.84,-11.61 -10.47,-13.74 -2.93,-1.11 -6.19,-1.63 -9.45,-1.57 -3.28,0.06 -6.57,0.7 -9.56,1.91 -5.97,2.41 -10.6,7.24 -10.88,14.29z"/>
    </g>
   </g>
   <path class="fil4" d="M1447.63 994.33c43.05,0 77.94,34.9 77.94,77.94 0,43.05 -34.9,77.94 -77.94,77.94 -43.05,0 -77.94,-34.9 -77.94,-77.94 0,-43.05 34.9,-77.94 77.94,-77.94zm0 46.67c17.27,0 31.27,14 31.27,31.27 0,17.27 -14,31.27 -31.27,31.27 -17.27,0 -31.27,-14 -31.27,-31.27 0,-17.27 14,-31.27 31.27,-31.27z"/>
   <path class="fil4" d="M1695.36 994.33c43.05,0 77.94,34.9 77.94,77.94 0,43.05 -34.9,77.94 -77.94,77.94 -43.04,0 -77.94,-34.9 -77.94,-77.94 0,-43.05 34.9,-77.94 77.94,-77.94zm0 46.67c17.27,0 31.27,14 31.27,31.27 0,17.27 -14,31.27 -31.27,31.27 -17.27,0 -31.27,-14 -31.27,-31.27 0,-17.27 14,-31.27 31.27,-31.27z"/>
   <path class="fil5" d="M877.92 497.18l300.56 0c6.48,0 11.78,5.3 11.78,11.78l0 299.02c0,6.48 -5.3,11.78 -11.78,11.78l-300.56 0c-6.48,0 -11.78,-5.3 -11.78,-11.78l0 -299.02c0,-6.48 5.3,-11.78 11.78,-11.78z"/>
   <path class="fil2" d="M954.32 651.35c-0.79,-3.72 1.59,-7.37 5.3,-8.16 3.72,-0.79 7.37,1.59 8.16,5.3 2.66,12.43 11.44,21.9 23.15,28.2 10.76,5.79 23.92,8.93 37.22,9.29 13.33,0.36 26.74,-2.05 37.96,-7.34 12.45,-5.88 22.16,-15.36 25.78,-28.56 1,-3.66 4.77,-5.81 8.43,-4.82 3.66,1 5.81,4.77 4.82,8.43 -4.8,17.51 -17.26,29.89 -33.16,37.39 -13.18,6.22 -28.76,9.05 -44.15,8.63 -15.43,-0.42 -30.77,-4.1 -43.41,-10.9 -15.11,-8.13 -26.5,-20.67 -30.09,-37.46z"/>
   <path class="fil2" d="M934.07 597.21c-0.15,3.79 -3.34,6.74 -7.13,6.6 -3.79,-0.15 -6.74,-3.34 -6.6,-7.13 0.52,-12.93 8.59,-21.63 18.97,-25.82 4.37,-1.77 9.19,-2.7 14,-2.79 4.83,-0.08 9.67,0.7 14.06,2.36 10.13,3.83 18.01,12.11 18.86,25.08 0.24,3.79 -2.64,7.06 -6.43,7.3 -3.79,0.24 -7.06,-2.64 -7.3,-6.43 -0.44,-6.73 -4.61,-11.05 -9.97,-13.08 -2.79,-1.06 -5.89,-1.55 -9,-1.5 -3.12,0.05 -6.25,0.67 -9.1,1.82 -5.68,2.3 -10.09,6.9 -10.36,13.6z"/>
   <path class="fil2" d="M1087.04 597.21c-0.15,3.79 -3.34,6.74 -7.13,6.6 -3.79,-0.15 -6.74,-3.34 -6.6,-7.13 0.52,-12.93 8.59,-21.63 18.97,-25.82 4.37,-1.77 9.19,-2.7 14,-2.79 4.83,-0.08 9.67,0.7 14.06,2.36 10.13,3.83 18.01,12.11 18.86,25.08 0.24,3.79 -2.64,7.06 -6.43,7.3 -3.79,0.24 -7.06,-2.64 -7.3,-6.43 -0.44,-6.73 -4.61,-11.05 -9.97,-13.08 -2.79,-1.06 -5.89,-1.55 -9,-1.5 -3.12,0.05 -6.25,0.67 -9.1,1.82 -5.68,2.3 -10.09,6.9 -10.36,13.6z"/>
   <path class="fil6" d="M811.83 757.77l441.29 0c6.48,0 11.78,5.3 11.78,11.78l0 299.02c0,6.48 -5.3,11.78 -11.78,11.78l-64.64 0c0.67,-2.53 1.03,-5.19 1.03,-7.93 0,-17.02 -13.8,-30.82 -30.82,-30.82 -17.02,0 -30.82,13.8 -30.82,30.82 0,2.74 0.36,5.4 1.03,7.93l-191 0c0.67,-2.53 1.03,-5.19 1.03,-7.93 0,-17.02 -13.8,-30.82 -30.82,-30.82 -17.02,0 -30.82,13.8 -30.82,30.82 0,2.74 0.36,5.4 1.03,7.93l-66.51 0c-6.48,0 -11.78,-5.3 -11.78,-11.78l0 -299.02c0,-6.48 5.3,-11.78 11.78,-11.78z"/>
   <g id="_2328095269888">
    <path class="fil2" d="M953.21 893.08c-0.83,-3.9 1.67,-7.74 5.57,-8.57 3.9,-0.83 7.74,1.67 8.57,5.57 2.79,13.05 12.01,23 24.31,29.62 11.31,6.08 25.13,9.38 39.1,9.76 14.01,0.38 28.09,-2.15 39.88,-7.71 13.08,-6.18 23.28,-16.14 27.08,-30.01 1.05,-3.84 5.01,-6.11 8.85,-5.06 3.84,1.05 6.11,5.01 5.06,8.85 -5.04,18.4 -18.14,31.4 -34.83,39.28 -13.84,6.53 -30.21,9.51 -46.38,9.07 -16.21,-0.44 -32.32,-4.31 -45.6,-11.45 -15.87,-8.54 -27.84,-21.71 -31.61,-39.35z"/>
    <g>
     <path class="fil2" d="M931.93 836.2c-0.15,3.98 -3.51,7.08 -7.49,6.93 -3.98,-0.15 -7.08,-3.51 -6.93,-7.49 0.55,-13.59 9.03,-22.72 19.93,-27.13 4.59,-1.86 9.65,-2.84 14.71,-2.93 5.07,-0.09 10.15,0.73 14.77,2.48 10.64,4.03 18.92,12.72 19.81,26.35 0.25,3.98 -2.78,7.42 -6.76,7.66 -3.98,0.25 -7.41,-2.78 -7.66,-6.76 -0.46,-7.07 -4.84,-11.61 -10.48,-13.74 -2.93,-1.11 -6.19,-1.63 -9.45,-1.57 -3.28,0.06 -6.57,0.7 -9.56,1.91 -5.97,2.41 -10.6,7.24 -10.88,14.29z"/>
     <path class="fil2" d="M1092.63 836.2c-0.15,3.98 -3.51,7.08 -7.49,6.93 -3.98,-0.15 -7.08,-3.51 -6.93,-7.49 0.55,-13.59 9.03,-22.72 19.93,-27.13 4.59,-1.86 9.65,-2.84 14.71,-2.93 5.07,-0.09 10.15,0.73 14.77,2.48 10.64,4.03 18.92,12.72 19.81,26.35 0.25,3.98 -2.78,7.42 -6.76,7.66 -3.98,0.25 -7.42,-2.78 -7.66,-6.76 -0.46,-7.07 -4.84,-11.61 -10.47,-13.74 -2.93,-1.11 -6.19,-1.63 -9.45,-1.57 -3.28,0.06 -6.57,0.7 -9.56,1.91 -5.97,2.41 -10.6,7.24 -10.88,14.29z"/>
    </g>
   </g>
   <path class="fil4" d="M908.58 994.33c43.05,0 77.94,34.9 77.94,77.94 0,43.05 -34.9,77.94 -77.94,77.94 -43.05,0 -77.94,-34.9 -77.94,-77.94 0,-43.05 34.9,-77.94 77.94,-77.94zm0 46.67c17.27,0 31.27,14 31.27,31.27 0,17.27 -14,31.27 -31.27,31.27 -17.27,0 -31.27,-14 -31.27,-31.27 0,-17.27 14,-31.27 31.27,-31.27z"/>
   <path class="fil4" d="M1158.72 994.33c43.05,0 77.94,34.9 77.94,77.94 0,43.05 -34.9,77.94 -77.94,77.94 -43.05,0 -77.94,-34.9 -77.94,-77.94 0,-43.05 34.9,-77.94 77.94,-77.94zm0 46.67c17.27,0 31.27,14 31.27,31.27 0,17.27 -14,31.27 -31.27,31.27 -17.27,0 -31.27,-14 -31.27,-31.27 0,-17.27 14,-31.27 31.27,-31.27z"/>
   <polygon class="fil4" points="115.36,1020.92 -0,1158.41 64.08,1158.41 "/>
   <path class="fil5" d="M140.95 1024.5l249.05 0c30.05,-44.35 36.32,-217.61 9.38,-277.69l0.83 -137.19 326.14 0 0 477.93 -120.36 0 0 70.86 -517.18 0 52.14 -133.92zm449.96 -373.58l47.86 0c13.55,0 24.63,11.08 24.63,24.63l0 141.16c0,13.55 -11.08,24.63 -24.63,24.63l-138.16 0c-13.55,0 -24.63,-11.08 -24.63,-24.63l0 -50.85c0,-63.21 51.72,-114.93 114.93,-114.93z"/>
   <path class="fil5" d="M157.56 748.5c-57.42,15.75 -99.61,68.32 -99.61,130.75 0,60.81 40.04,112.27 95.2,129.45 17.36,-38.7 27.48,-85.24 27.48,-135.3 0,-45.65 -8.42,-88.37 -23.06,-124.9z"/>
   <circle class="fil7" cx="579.56" cy="1044.73" r="130.79"/>
   <path class="fil4" d="M401.47 512.83l331.09 -8.6c8.73,-0.23 14.55,7.25 15.87,15.87l8.97 58.7c1.32,8.63 -7.15,15.76 -15.87,15.87l-352.78 4.49c-8.72,0.11 -17.85,-7.37 -15.87,-15.87l12.71 -54.58c1.98,-8.5 7.15,-15.65 15.87,-15.87z"/>
   <path class="fil4" d="M176.76 609.73l35.46 137.08 -28.42 0c14.15,35.7 22.41,78.73 22.41,125.05 0,48.27 -8.97,92.97 -24.23,129.52l0 6.77 195.46 0c26.65,-90.19 26.76,-177.31 0,-261.34l-93.47 0 29.75 -137.43c6.43,-2.59 11,-8.91 11,-16.24 0,-9.63 -7.87,-17.5 -17.5,-17.5l-124.93 0c-9.63,0 -17.5,7.87 -17.5,17.5 0,7.69 5.03,14.27 11.97,16.6z"/>
   <path class="fil4" d="M184.17 1056.83c33.13,0 60,26.86 60,60 0,33.14 -26.86,60 -60,60 -33.14,0 -60,-26.86 -60,-60 0,-33.14 26.86,-60 60,-60zm0 35.93c13.29,0 24.07,10.78 24.07,24.07 0,13.29 -10.78,24.07 -24.07,24.07 -13.29,0 -24.07,-10.78 -24.07,-24.07 0,-13.29 10.78,-24.07 24.07,-24.07z"/>
   <path class="fil4" d="M322.83 1056.83c33.13,0 60,26.86 60,60 0,33.14 -26.86,60 -60,60 -33.14,0 -60,-26.86 -60,-60 0,-33.14 26.86,-60 60,-60zm0 35.93c13.29,0 24.07,10.78 24.07,24.07 0,13.29 -10.78,24.07 -24.07,24.07 -13.29,0 -24.07,-10.78 -24.07,-24.07 0,-13.29 10.78,-24.07 24.07,-24.07z"/>
  </g>
 </g>
</svg>
