<?xml version="1.0" encoding="UTF-8"?>
<!DOCTYPE svg PUBLIC "-//W3C//DTD SVG 1.1//EN" "http://www.w3.org/Graphics/SVG/1.1/DTD/svg11.dtd">
<!-- Creator: CorelDRAW 2021 (64-Bit OEM Version) -->
<svg xmlns="http://www.w3.org/2000/svg" xml:space="preserve" width="1.93024in" height="3.12041in" version="1.1" style="shape-rendering:geometricPrecision; text-rendering:geometricPrecision; image-rendering:optimizeQuality; fill-rule:evenodd; clip-rule:evenodd"
viewBox="0 0 97.77 158.05"
 xmlns:xlink="http://www.w3.org/1999/xlink"
 xmlns:xodm="http://www.corel.com/coreldraw/odm/2003">
 <defs>
  <style type="text/css">
   <![CDATA[
    .fil0 {fill:#006E6A}
    .fil1 {fill:black;fill-rule:nonzero}
   ]]>
  </style>
 </defs>
 <g id="Layer_x0020_1">
  <metadata id="CorelCorpID_0Corel-Layer"/>
  <g id="_2328344979056">
   <circle class="fil0" cx="48.88" cy="48.88" r="48.88"/>
   <path class="fil1" d="M47.44 27.32c0,-0.79 0.64,-1.44 1.44,-1.44 0.79,0 1.44,0.64 1.44,1.44l0 129.29c0,0.79 -0.64,1.44 -1.44,1.44 -0.79,0 -1.44,-0.64 -1.44,-1.44l0 -129.29z"/>
   <path class="fil1" d="M70.95 49.19c0.61,-0.51 1.51,-0.43 2.02,0.18 0.51,0.61 0.43,1.51 -0.18,2.02l-22.38 18.69c-0.61,0.51 -1.51,0.43 -2.02,-0.18 -0.51,-0.61 -0.43,-1.51 0.18,-2.02l22.38 -18.69z"/>
   <path class="fil1" d="M29.41 39.1c-0.61,-0.51 -0.69,-1.41 -0.18,-2.02 0.51,-0.61 1.41,-0.69 2.02,-0.18l18.54 15.48c0.61,0.51 0.69,1.41 0.18,2.02 -0.51,0.61 -1.41,0.69 -2.02,0.18l-18.54 -15.48z"/>
   <path class="fil1" d="M29.21 66.94c-0.61,-0.51 -0.69,-1.41 -0.18,-2.02 0.51,-0.61 1.41,-0.69 2.02,-0.18l18.54 15.48c0.61,0.51 0.69,1.41 0.18,2.02 -0.51,0.61 -1.41,0.69 -2.02,0.18l-18.54 -15.48z"/>
  </g>
 </g>
</svg>
