<?xml version="1.0" encoding="UTF-8"?>
<!DOCTYPE svg PUBLIC "-//W3C//DTD SVG 1.1//EN" "http://www.w3.org/Graphics/SVG/1.1/DTD/svg11.dtd">
<!-- Creator: CorelDRAW 2021 (64-Bit OEM Version) -->
<svg xmlns="http://www.w3.org/2000/svg" xml:space="preserve" width="2.14428in" height="3.91241in" version="1.1" style="shape-rendering:geometricPrecision; text-rendering:geometricPrecision; image-rendering:optimizeQuality; fill-rule:evenodd; clip-rule:evenodd"
viewBox="0 0 95.95 175.07"
 xmlns:xlink="http://www.w3.org/1999/xlink"
 xmlns:xodm="http://www.corel.com/coreldraw/odm/2003">
 <defs>
  <style type="text/css">
   <![CDATA[
    .fil0 {fill:#F2D250}
    .fil1 {fill:black;fill-rule:nonzero}
   ]]>
  </style>
 </defs>
 <g id="Layer_x0020_1">
  <metadata id="CorelCorpID_0Corel-Layer"/>
  <g id="_2328027777648">
   <path class="fil0" d="M48.41 0c2.53,0 4.71,1.48 5.72,3.62l0 0 0 0.01c0.12,0.26 0.22,0.52 0.31,0.79l40.72 104.04c0.27,0.48 0.47,1.01 0.61,1.56l0 0 -0 0c0.12,0.48 0.18,0.99 0.18,1.5 0,3.26 -2.47,5.94 -5.64,6.29l-0 0 -0 0c-0.23,0.02 -0.46,0.04 -0.69,0.04 -0.23,0 -0.46,-0.01 -0.68,-0.04l-82.62 0.04c-3.49,0 -6.33,-2.83 -6.33,-6.33 0,-0.99 0.23,-1.93 0.64,-2.77l41.65 -104.05c0.13,-0.51 0.33,-0.99 0.58,-1.44l0 -0 0 0c1.08,-1.95 3.16,-3.27 5.54,-3.27z"/>
   <path class="fil1" d="M46.69 58.39c0,-0.71 0.58,-1.28 1.28,-1.28 0.71,0 1.28,0.58 1.28,1.28l0 115.4c0,0.71 -0.57,1.28 -1.28,1.28 -0.71,0 -1.28,-0.57 -1.28,-1.28l0 -115.4z"/>
   <path class="fil1" d="M67.5 76.7c0.54,-0.45 1.35,-0.38 1.81,0.16 0.45,0.54 0.38,1.35 -0.16,1.81l-19.98 16.68c-0.54,0.45 -1.35,0.38 -1.81,-0.16 -0.45,-0.54 -0.38,-1.35 0.16,-1.81l19.98 -16.68z"/>
   <path class="fil1" d="M30.45 70.23c-0.54,-0.45 -0.61,-1.26 -0.16,-1.81 0.45,-0.54 1.26,-0.61 1.81,-0.16l16.55 13.82c0.54,0.45 0.61,1.26 0.16,1.81 -0.45,0.54 -1.26,0.61 -1.81,0.16l-16.55 -13.82z"/>
   <path class="fil1" d="M30.35 95.39c-0.54,-0.45 -0.61,-1.26 -0.16,-1.81 0.45,-0.54 1.26,-0.61 1.81,-0.16l16.55 13.82c0.54,0.45 0.61,1.26 0.16,1.81 -0.45,0.54 -1.26,0.61 -1.81,0.16l-16.55 -13.82z"/>
  </g>
 </g>
</svg>
