<?xml version="1.0" encoding="UTF-8"?>
<!DOCTYPE svg PUBLIC "-//W3C//DTD SVG 1.1//EN" "http://www.w3.org/Graphics/SVG/1.1/DTD/svg11.dtd">
<!-- Creator: CorelDRAW 2021 (64-Bit OEM Version) -->
<svg xmlns="http://www.w3.org/2000/svg" xml:space="preserve" width="5.82144in" height="7.63485in" version="1.1" style="shape-rendering:geometricPrecision; text-rendering:geometricPrecision; image-rendering:optimizeQuality; fill-rule:evenodd; clip-rule:evenodd"
viewBox="0 0 649.65 852.02"
 xmlns:xlink="http://www.w3.org/1999/xlink"
 xmlns:xodm="http://www.corel.com/coreldraw/odm/2003">
 <defs>
  <style type="text/css">
   <![CDATA[
    .fil1 {fill:#009E9A}
    .fil2 {fill:#7A4F30}
    .fil4 {fill:#F2D250}
    .fil0 {fill:black;fill-rule:nonzero}
    .fil3 {fill:white;fill-rule:nonzero}
   ]]>
  </style>
 </defs>
 <g id="Layer_x0020_1">
  <metadata id="CorelCorpID_0Corel-Layer"/>
  <g id="_2292156953168">
   <polygon class="fil0" points="409.22,427.59 418.71,677.68 412.6,678.09 402.27,428.05 "/>
   <polygon class="fil0" points="555.61,407.8 556.3,670.83 550.18,671.24 548.66,408.26 "/>
   <path class="fil1" d="M270.7 447.24c-14.69,14.89 -37.12,24.41 -62.26,24.41 -36.82,0 -67.84,-20.42 -77.23,-48.25 -9.48,1.32 -19.33,1.53 -29.35,0.48 -61.93,-6.46 -107.31,-58.11 -101.34,-115.39 2.93,-28.15 17.73,-52.42 39.37,-69.05 -8.82,-16.66 -12.94,-35.65 -10.89,-55.32 5.86,-56.25 59.93,-96.71 120.76,-90.37l0.4 0.05c0.06,-0.67 0.11,-1.35 0.18,-2.02 5.86,-56.25 59.93,-96.71 120.76,-90.37 24.82,2.59 46.94,12.57 64.02,27.3 22.08,-20.44 53.42,-31.63 86.85,-28.07 45.98,4.89 82.46,36.25 94.07,76.17 5.98,-0.42 12.1,-0.32 18.3,0.34 53.95,5.74 93.47,51.7 88.27,102.65 -1.47,14.4 -6.35,27.65 -13.82,39.13 27.34,18.71 43.83,50.21 40.39,83.95 -4.33,42.45 -38.84,74.79 -81.54,80.25 -6.63,48.55 -52.95,83.06 -104.95,77.53 -27.37,-2.91 -50.97,-16.36 -66.69,-35.57 -12.7,22.59 -40.51,38.27 -72.77,38.27 -20.1,0 -38.47,-6.09 -52.54,-16.14z"/>
   <path class="fil2" d="M164.51 380.12l13.61 -16.8 97.89 77.61 0.87 -88.62c0,0 29.25,7.24 42.86,7.53 13.61,0.29 37.07,0.29 37.07,0.29l0.58 61.69 84.85 -59.37 21.72 10.71c0,0 -83.12,66.32 -107.44,99.33l-0.13 67.56 11.65 159.57c0,0 -0.38,66.25 28.6,75.91 0,0 112.67,-20.06 150.66,36.68 0,0 -1.73,11.5 -15.75,2.31 -14.02,-9.2 -51.03,-44.24 -131.41,-23.87 0,0 42.27,12.7 48.4,32.2 0,0 3.07,12.27 -8.98,6.35 0,0 -10.95,-11.17 -22.78,-15.55 -11.83,-4.38 -59.79,-26.94 -84.98,-24.75 0,0 0.22,7.01 10.51,18.18 10.29,11.17 20.59,21.68 17.3,40.3 0,0 -7.67,12.05 -12.92,-2.63 0,0 1.31,-10.95 -0.44,-12.92 -1.75,-1.97 -22.78,-18.62 -35.92,-38.77l-11.83 -1.31c0,0 -18.84,35.26 -48.4,48.18 0,0 -11.61,1.97 -11.61,-4.6 0,-6.57 11.39,-10.07 11.39,-10.07 0,0 22.78,-12.05 27.16,-27.6 4.38,-15.55 -4.16,-12.7 -4.16,-12.7l-12.46 5.24c0,0 -50.13,17.63 -63.98,22.92 -13.85,5.29 -26.15,13.82 -28.41,19.71 -2.25,5.89 -12.15,5.76 -11.4,0.12 0.75,-5.64 20.54,-32.31 54.61,-36.7 0,0 10.4,-2.63 3.63,-4.51 -6.76,-1.88 -49.89,-4.2 -74.21,15.08 -24.32,19.28 -26.95,22.56 -26.95,22.56 0,0 -14.68,3.72 -8.76,-5.92 5.92,-9.64 18.62,-26.07 60.68,-40.09 0,0 38.28,-6.32 70.73,-4.29 0,0 12.7,-2.67 15.16,-13.57 2.46,-10.9 20.34,-76.34 19.01,-178.17l2.97 -107.03 -108.99 -100.2z"/>
   <path class="fil0" d="M296.89 618.8c-0.01,0.25 -2.32,88.97 -10.11,111.57l-3.3 -1.13c7.63,-22.13 9.93,-110.27 9.94,-110.52l3.47 0.08z"/>
   <polygon class="fil0" points="323.11,662.73 322.34,735.98 318.86,735.96 319.63,662.7 "/>
   <polygon class="fil0" points="331.47,374.74 336.17,476 332.69,476.15 328,374.9 "/>
   <g>
    <path class="fil3" d="M74.08 271.58c0.38,-1.39 1.82,-2.2 3.21,-1.82 1.39,0.38 2.2,1.82 1.82,3.21 -0.03,0.1 -10.84,36.74 38.29,41.46 1.43,0.13 2.48,1.41 2.35,2.84 -0.13,1.43 -1.41,2.48 -2.84,2.35 -55.41,-5.32 -42.87,-47.91 -42.83,-48.04z"/>
    <path class="fil3" d="M123.01 236.87c0.38,-1.39 1.82,-2.2 3.21,-1.82 1.39,0.38 2.2,1.82 1.82,3.21 -0.03,0.1 -10.84,36.74 38.29,41.46 1.43,0.13 2.48,1.41 2.35,2.84 -0.13,1.43 -1.41,2.48 -2.84,2.35 -55.41,-5.32 -42.87,-47.92 -42.83,-48.04z"/>
    <path class="fil3" d="M87.06 334.29c0.39,-1.38 1.84,-2.18 3.22,-1.79 1.38,0.39 2.18,1.84 1.79,3.22 -0.01,0.04 -4.61,15.19 30.97,21.38 1.42,0.24 2.38,1.59 2.14,3.01 -0.24,1.42 -1.59,2.38 -3.01,2.14 -41.36,-7.19 -35.12,-27.91 -35.1,-27.96z"/>
    <path class="fil3" d="M205.76 283.92c0.48,-1.35 1.98,-2.06 3.33,-1.57 1.35,0.48 2.06,1.98 1.57,3.33 -0.02,0.07 -8.87,23.69 19.72,40.54 1.24,0.73 1.66,2.33 0.93,3.57 -0.73,1.24 -2.33,1.66 -3.57,0.93 -32.35,-19.07 -22.02,-46.71 -21.99,-46.79z"/>
    <path class="fil3" d="M110.96 155.75c0.55,-1.33 2.08,-1.96 3.41,-1.41 1.33,0.55 1.96,2.08 1.41,3.41 -0.03,0.08 -11.54,26.53 22.49,41.78 1.31,0.59 1.9,2.13 1.32,3.44 -0.59,1.31 -2.13,1.9 -3.44,1.32 -38.73,-17.36 -25.22,-48.46 -25.19,-48.55z"/>
    <path class="fil3" d="M544.35 269.44c-0.17,-1.43 0.84,-2.73 2.27,-2.9 1.43,-0.17 2.73,0.84 2.9,2.27 0.02,0.15 7.36,52.04 -54.45,53.83 -1.44,0.04 -2.64,-1.1 -2.68,-2.54 -0.04,-1.44 1.1,-2.64 2.54,-2.68 55.99,-1.62 49.44,-47.85 49.42,-47.98z"/>
    <path class="fil3" d="M542.75 351.73c-0.25,-1.42 0.7,-2.78 2.13,-3.03 1.42,-0.25 2.78,0.7 3.03,2.13 0.02,0.12 7.74,41.07 -38.63,56.9 -1.37,0.46 -2.85,-0.27 -3.31,-1.63 -0.46,-1.37 0.27,-2.85 1.63,-3.31 42.07,-14.36 35.17,-50.94 35.15,-51.05z"/>
    <path class="fil3" d="M461.79 271.56c-0.11,-1.44 0.96,-2.7 2.4,-2.81 1.44,-0.11 2.7,0.96 2.81,2.4 0,0.04 1.46,14.71 -14.02,20.26 -1.35,0.48 -2.85,-0.22 -3.33,-1.57 -0.48,-1.35 0.22,-2.85 1.57,-3.33 11.63,-4.17 10.57,-14.92 10.56,-14.95z"/>
    <path class="fil3" d="M315.92 58.6c1.22,-0.77 2.84,-0.41 3.61,0.81 0.77,1.22 0.41,2.83 -0.81,3.61l-0.72 0.43c-4.6,2.75 -25.26,15.13 -15.55,37.38 0.58,1.32 -0.03,2.86 -1.35,3.43 -1.32,0.58 -2.86,-0.03 -3.43,-1.35 -11.54,-26.46 12.34,-40.76 17.65,-43.94l0.59 -0.37z"/>
    <path class="fil3" d="M347.39 130.44c1.22,-0.77 2.83,-0.41 3.61,0.81 0.77,1.22 0.41,2.83 -0.81,3.61l-0.72 0.43c-4.6,2.75 -25.26,15.13 -15.55,37.38 0.58,1.32 -0.03,2.86 -1.35,3.43 -1.32,0.58 -2.86,-0.03 -3.43,-1.35 -11.54,-26.46 12.34,-40.76 17.65,-43.94l0.59 -0.37z"/>
    <path class="fil3" d="M488.49 160.5c-0.58,-1.32 0.03,-2.86 1.35,-3.43 1.32,-0.58 2.86,0.03 3.43,1.35 0.1,0.23 0.21,0.5 0.32,0.81 1.82,5.07 0.96,12.73 -2.08,19.79 -3.02,7.03 -8.23,13.62 -15.14,16.64 -0.49,0.22 -0.95,0.4 -1.35,0.54 -1.36,0.48 -2.86,-0.22 -3.34,-1.58 -0.48,-1.36 0.22,-2.86 1.58,-3.34 0.4,-0.14 0.74,-0.28 1.02,-0.4 5.56,-2.43 9.86,-7.96 12.42,-13.92 2.55,-5.92 3.36,-12.11 1.98,-15.96l-0.19 -0.48z"/>
    <path class="fil3" d="M470.31 95.31c-1.22,-0.77 -1.58,-2.39 -0.81,-3.61 0.77,-1.22 2.39,-1.58 3.61,-0.81l0.59 0.37c5.31,3.18 29.2,17.49 17.65,43.94 -0.58,1.32 -2.11,1.93 -3.43,1.35 -1.32,-0.58 -1.93,-2.11 -1.35,-3.43 9.71,-22.26 -10.95,-34.63 -15.55,-37.38l-0.72 -0.43z"/>
    <path class="fil3" d="M394.69 51.98c0.76,-1.22 2.37,-1.6 3.6,-0.84 1.22,0.76 1.6,2.37 0.84,3.6 -2.3,3.71 -6.65,11.73 -8.17,21.54 -0.94,6.1 -0.78,12.88 1.69,19.7 0.49,1.35 -0.21,2.85 -1.56,3.34 -1.35,0.49 -2.85,-0.21 -3.34,-1.56 -2.81,-7.78 -3.01,-15.43 -1.95,-22.27 1.65,-10.71 6.4,-19.46 8.9,-23.5z"/>
   </g>
   <rect class="fil4" transform="matrix(2.34898 -0.0270017 -0 2.25052 398.148 671.364)" width="74.85" height="14.01" rx="3.91" ry="3.91"/>
  </g>
 </g>
</svg>
